<?xml version="1.0" standalone="no"?>
<!DOCTYPE svg PUBLIC "-//W3C//DTD SVG 20010904//EN"
 "http://www.w3.org/TR/2001/REC-SVG-20010904/DTD/svg10.dtd">
<svg version="1.0" xmlns="http://www.w3.org/2000/svg"
 width="236.000000pt" height="236.000000pt" viewBox="0 0 236.000000 236.000000"
 preserveAspectRatio="xMidYMid meet">

<g transform="translate(0.000000,236.000000) scale(0.100000,-0.100000)"
fill="#000000" stroke="none">
<path d="M1024 2250 c-85 -16 -209 -64 -295 -116 -254 -154 -411 -433 -411
-734 0 -176 49 -332 155 -487 56 -83 691 -808 708 -808 10 0 614 681 673 760
73 97 110 165 145 272 151 448 -101 936 -559 1084 -83 27 -112 32 -230 35 -74
1 -158 -1 -186 -6z m367 -203 c207 -70 370 -232 440 -437 30 -90 38 -260 15
-362 -63 -282 -291 -488 -585 -529 -275 -38 -562 117 -691 373 -55 110 -74
204 -68 341 8 185 64 312 198 448 61 61 94 85 170 123 124 61 196 77 335 72
85 -3 127 -9 186 -29z"/>
<path d="M823 1780 c-4 -16 -14 -20 -52 -20 -26 0 -52 -5 -59 -12 -12 -12 -17
-134 -6 -162 3 -9 17 -16 30 -16 21 0 23 4 26 63 3 59 4 62 30 65 l28 3 2
-323 3 -323 22 -3 c16 -2 23 -11 25 -35 3 -29 6 -32 38 -32 32 0 35 3 38 33
l3 32 242 -2 242 -3 3 -32 c3 -30 6 -33 37 -33 31 0 34 3 37 33 2 24 8 33 26
35 l22 3 0 325 0 324 30 0 c29 0 29 -1 32 -62 3 -60 4 -63 28 -63 24 0 25 2
28 78 4 96 -4 107 -69 107 -42 0 -49 3 -49 20 0 20 -7 20 -366 20 -357 0 -366
0 -371 -20z m707 -310 c0 -139 -3 -199 -12 -208 -15 -15 -644 -17 -653 -2 -4
7 -9 351 -5 400 0 3 151 5 335 5 l335 0 0 -195z m-516 -292 c8 -14 7 -21 -6
-34 -30 -30 -75 9 -48 42 16 18 39 15 54 -8z m400 16 c19 -7 21 -35 4 -52 -16
-16 -23 -15 -42 4 -12 12 -13 20 -6 35 11 20 19 23 44 13z m-503 -37 c-5 -5
-17 -7 -26 -3 -14 5 -15 9 -5 21 10 12 16 13 27 4 9 -8 10 -16 4 -22z m597 10
c2 -12 -3 -17 -17 -17 -12 0 -21 6 -21 13 0 31 32 34 38 4z"/>
</g>
</svg>
